# xmcd
#
# Track frame offsets:
# 150
# 7797
# 24818
# 40930
# 54820
# 70753
# 86378
# 104485
# 120351
# 137334
# 159183
# 184593
# 208618
# 232705
# 251222
# 274280
# 297906
#
# Disc length: 4338 seconds
#
#
# Revision: 3
# Processed by: cddbd v1.5.1PL0 Copyright (c) Steve Scherf et al.
# Submitted via: FreeRIP 2.90 
#
DISCID=cd10f011,e610f011
DTITLE=Van Halen - Best Of Volume 1
DYEAR=1996
DGENRE=Rock
TTITLE0=Eruption
TTITLE1=Ain´t Talkin´´bout Love
TTITLE2=Runnin´With The Devil
TTITLE3=Dance The Night Away
TTITLE4=And The Cradle Will Rock...
TTITLE5=Unchained
TTITLE6=Jump
TTITLE7=Panama
TTITLE8=Why Can´t This Be Love
TTITLE9=Dreams
TTITLE10=When It´s Love
TTITLE11=Poundcake
TTITLE12=Right Now
TTITLE13=Can´t Stop Lovin´You
TTITLE14=Humans Being
TTITLE15=Can´t Get This Stuff No More
TTITLE16=Me Wise Magic
EXTD=
EXTT0=
EXTT1=
EXTT2=
EXTT3=
EXTT4=
EXTT5=
EXTT6=
EXTT7=
EXTT8=
EXTT9=
EXTT10=
EXTT11=
EXTT12=
EXTT13=
EXTT14=
EXTT15=
EXTT16=
PLAYORDER=
